<svg width="20" height="21" viewBox="0 0 20 21" fill="none" xmlns="http://www.w3.org/2000/svg">
<path d="M10.4908 15.5C9.52588 15.5 8.66636 15.2894 7.9122 14.8682C7.15804 14.435 6.5647 13.8394 6.13216 13.0812C5.71072 12.3231 5.5 11.4627 5.5 10.5C5.5 9.52527 5.71072 8.66486 6.13216 7.91877C6.5647 7.16065 7.15804 6.571 7.9122 6.14982C8.66636 5.71661 9.52588 5.5 10.4908 5.5C11.4335 5.5 12.2542 5.71661 12.9529 6.14982C13.4059 6.42291 13.782 6.77442 14.0812 7.20435C14.3678 7.61623 14.1759 8.16181 13.7424 8.41449L13.4014 8.61327C12.905 8.90259 12.2885 8.68064 11.8488 8.31085C11.7711 8.24552 11.69 8.18703 11.6054 8.13538C11.2616 7.91877 10.8845 7.81047 10.4741 7.81047C10.0305 7.81047 9.63124 7.91877 9.27634 8.13538C8.92144 8.35198 8.63863 8.65884 8.42791 9.05596C8.22828 9.45307 8.12847 9.93442 8.12847 10.5C8.12847 11.0656 8.22828 11.5469 8.42791 11.944C8.63863 12.3412 8.92144 12.648 9.27634 12.8646C9.63124 13.0812 10.0305 13.1895 10.4741 13.1895C10.8845 13.1895 11.2616 13.0872 11.6054 12.8827C11.6888 12.8318 11.7688 12.7739 11.8454 12.709C12.2892 12.3336 12.9133 12.1061 13.4136 12.4021L13.7463 12.5991C14.1777 12.8544 14.3657 13.4002 14.0776 13.8106C13.779 14.2359 13.4041 14.5885 12.9529 14.8682C12.2542 15.2894 11.4335 15.5 10.4908 15.5Z" fill="#EAC696"/>
<rect x="0.5" y="0.5" width="19" height="20" rx="9.5" stroke="#EAC696"/>
</svg>
