<svg xmlns="http://www.w3.org/2000/svg" xmlns:xlink="http://www.w3.org/1999/xlink" version="1.1" width="256" height="256" viewBox="0 0 256 256" xml:space="preserve">

<defs>
</defs>
<g style="stroke: none; stroke-width: 0; stroke-dasharray: none; stroke-linecap: butt; stroke-linejoin: miter; stroke-miterlimit: 10; fill: none; fill-rule: nonzero; opacity: 1;" transform="translate(1.4065934065934016 1.4065934065934016) scale(2.81 2.81)" >
	<path d="M 67.298 58.285 l -1.131 -0.207 V 40.717 c 1.603 -0.106 2.878 -1.43 2.878 -3.059 v -8.765 c 0 -1.629 -1.275 -2.953 -2.878 -3.059 v -4.667 C 66.167 9.496 56.672 0 45 0 C 33.329 0 23.833 9.496 23.833 21.167 v 4.667 c -1.603 0.106 -2.878 1.43 -2.878 3.059 v 8.765 c 0 1.629 1.275 2.953 2.878 3.059 v 17.361 l -1.131 0.207 c -4.646 0.85 -8.017 4.894 -8.017 9.616 v 18.463 c 0 2.005 1.631 3.636 3.636 3.636 H 71.68 c 2.005 0 3.636 -1.631 3.636 -3.636 V 67.901 C 75.315 63.179 71.943 59.135 67.298 58.285 z M 59.384 56.839 c -2.589 -0.474 -4.468 -2.727 -4.468 -5.359 v -1.186 c 0.394 -0.338 0.793 -0.667 1.165 -1.036 c 0.349 -0.345 0.675 -0.715 1.001 -1.085 c 3.696 -0.651 6.582 -3.672 7.022 -7.436 h 0.063 v 16.976 L 59.384 56.839 z M 28.77 25.674 c 10.872 -1.542 17.75 -3.961 21.992 -7.752 c 3.05 3.47 5.926 5.722 10.432 8.191 l -0.791 9.467 c -0.188 2.24 -0.754 4.411 -1.683 6.454 c -0.489 1.076 -1.081 2.115 -1.76 3.088 c -0.28 0.401 -0.585 0.786 -0.895 1.166 c -0.157 0.011 -0.313 0.024 -0.473 0.024 h -6.386 c -0.553 0 -1 0.447 -1 1 s 0.447 1 1 1 h 4.933 c -1.911 1.759 -4.105 3.119 -6.561 4.007 c -1.662 0.602 -3.494 0.602 -5.156 0 c -7.156 -2.586 -12.189 -9.156 -12.823 -16.738 L 28.77 25.674 z M 61.359 40.737 h 0.724 c -0.282 1.834 -1.317 3.421 -2.786 4.427 c 0.456 -0.746 0.884 -1.51 1.244 -2.303 C 60.856 42.168 61.12 41.456 61.359 40.737 z M 41.743 54.199 c 1.05 0.38 2.154 0.569 3.257 0.569 s 2.207 -0.189 3.258 -0.569 c 1.67 -0.603 3.224 -1.417 4.673 -2.391 c 0.134 3.058 2.118 5.689 4.951 6.688 C 55.16 65.929 50.845 72.017 45 76.583 c -5.845 -4.566 -10.16 -10.654 -12.881 -18.086 c 2.832 -0.999 4.815 -3.628 4.951 -6.684 C 38.509 52.782 40.069 53.594 41.743 54.199 z M 67.045 28.893 v 8.765 c 0 0.595 -0.484 1.08 -1.079 1.08 h -4.053 c 0.224 -0.983 0.396 -1.978 0.481 -2.99 l 0.663 -7.934 h 2.908 C 66.561 27.813 67.045 28.297 67.045 28.893 z M 45 2 c 10.568 0 19.167 8.598 19.167 19.167 v 4.646 h -0.942 l 0.015 -0.185 c 0.033 -0.397 -0.172 -0.776 -0.523 -0.965 c -4.942 -2.648 -7.852 -4.961 -11.118 -8.835 c -0.182 -0.215 -0.445 -0.344 -0.726 -0.354 c -0.3 -0.01 -0.555 0.097 -0.752 0.297 c -3.939 4 -10.897 6.483 -22.56 8.051 c -0.528 0.071 -0.908 0.543 -0.863 1.075 l 0.077 0.917 h -0.941 v -4.646 C 25.833 10.598 34.431 2 45 2 z M 22.955 37.658 v -8.765 c 0 -0.595 0.484 -1.079 1.079 -1.079 h 2.908 l 0.664 7.934 c 0.085 1.015 0.244 2.014 0.468 2.99 h -4.039 C 23.439 38.737 22.955 38.253 22.955 37.658 z M 25.833 40.737 h 2.81 c 1.244 3.726 3.477 7.043 6.441 9.58 v 1.162 c 0 2.632 -1.879 4.886 -4.468 5.359 l -4.783 0.874 V 40.737 z M 23.062 60.252 l 7.095 -1.297 c 2.94 8.159 7.717 14.789 14.243 19.687 l 0.6 0.45 l 0.6 -0.45 c 6.526 -4.898 11.303 -11.528 14.243 -19.687 l 7.095 1.297 c 3.695 0.677 6.377 3.894 6.377 7.649 v 0.625 l -8.764 7.897 c -1.866 1.682 -2.937 4.087 -2.937 6.599 V 88 h -33.23 v -4.979 c 0 -2.513 -1.071 -4.918 -2.937 -6.599 l -8.764 -7.897 v -0.624 C 16.685 64.146 19.367 60.929 23.062 60.252 z M 16.685 86.364 V 71.218 l 7.425 6.691 c 1.446 1.303 2.275 3.166 2.275 5.112 V 88 H 18.32 C 17.418 88 16.685 87.267 16.685 86.364 z M 71.68 88 h -8.064 v -4.979 c 0 -1.946 0.829 -3.81 2.274 -5.112 l 7.426 -6.691 v 15.146 C 73.315 87.267 72.582 88 71.68 88 z" style="stroke: none; stroke-width: 1; stroke-dasharray: none; stroke-linecap: butt; stroke-linejoin: miter; stroke-miterlimit: 10; fill: rgb(0,0,0); fill-rule: nonzero; opacity: 1;" transform=" matrix(1 0 0 1 0 0) " stroke-linecap="round" />
	<path d="M 35.22 30.608 c 2.01 -0.965 3.964 -0.965 5.974 0 c 0.14 0.067 0.287 0.099 0.432 0.099 c 0.373 0 0.73 -0.209 0.902 -0.567 c 0.239 -0.498 0.029 -1.095 -0.469 -1.334 c -2.556 -1.228 -5.149 -1.228 -7.705 0 c -0.498 0.239 -0.708 0.836 -0.469 1.334 C 34.125 30.638 34.723 30.848 35.22 30.608 z" style="stroke: none; stroke-width: 1; stroke-dasharray: none; stroke-linecap: butt; stroke-linejoin: miter; stroke-miterlimit: 10; fill: rgb(0,0,0); fill-rule: nonzero; opacity: 1;" transform=" matrix(1 0 0 1 0 0) " stroke-linecap="round" />
	<path d="M 48.22 30.608 c 2.009 -0.964 3.964 -0.964 5.974 0 c 0.14 0.067 0.287 0.099 0.432 0.099 c 0.373 0 0.73 -0.209 0.902 -0.567 c 0.239 -0.498 0.029 -1.095 -0.469 -1.334 c -2.555 -1.228 -5.147 -1.228 -7.704 0 c -0.498 0.239 -0.708 0.836 -0.469 1.334 C 47.124 30.637 47.718 30.85 48.22 30.608 z" style="stroke: none; stroke-width: 1; stroke-dasharray: none; stroke-linecap: butt; stroke-linejoin: miter; stroke-miterlimit: 10; fill: rgb(0,0,0); fill-rule: nonzero; opacity: 1;" transform=" matrix(1 0 0 1 0 0) " stroke-linecap="round" />
	<path d="M 39.784 42.059 c -0.385 0.396 -0.377 1.028 0.019 1.414 c 1.695 1.651 3.44 2.477 5.189 2.477 c 1.748 0 3.5 -0.825 5.204 -2.475 c 0.397 -0.384 0.407 -1.017 0.023 -1.414 c -0.384 -0.396 -1.017 -0.407 -1.414 -0.023 c -2.604 2.52 -5.022 2.522 -7.607 0.002 C 40.802 41.655 40.169 41.664 39.784 42.059 z" style="stroke: none; stroke-width: 1; stroke-dasharray: none; stroke-linecap: butt; stroke-linejoin: miter; stroke-miterlimit: 10; fill: rgb(0,0,0); fill-rule: nonzero; opacity: 1;" transform=" matrix(1 0 0 1 0 0) " stroke-linecap="round" />
</g>
</svg>