<svg width="26" height="24" viewBox="0 0 26 24" fill="none" xmlns="http://www.w3.org/2000/svg">
<path fill-rule="evenodd" clip-rule="evenodd" d="M13 8.5C13.5523 8.5 14 8.94771 14 9.5V23C14 23.5523 13.5523 24 13 24C12.4477 24 12 23.5523 12 23V9.5C12 8.94771 12.4477 8.5 13 8.5Z" fill="#65451F"/>
<path fill-rule="evenodd" clip-rule="evenodd" d="M13 0C13.5523 0 14 0.447715 14 1V4.5C14 5.05228 13.5523 5.5 13 5.5C12.4477 5.5 12 5.05228 12 4.5V1C12 0.447715 12.4477 0 13 0Z" fill="#65451F"/>
<path fill-rule="evenodd" clip-rule="evenodd" d="M13 5.5C12.1716 5.5 11.5 6.17157 11.5 7C11.5 7.82843 12.1716 8.5 13 8.5C13.8284 8.5 14.5 7.82843 14.5 7C14.5 6.17157 13.8284 5.5 13 5.5ZM9.5 7C9.5 5.067 11.067 3.5 13 3.5C14.933 3.5 16.5 5.067 16.5 7C16.5 8.933 14.933 10.5 13 10.5C11.067 10.5 9.5 8.933 9.5 7Z" fill="#65451F"/>
<path fill-rule="evenodd" clip-rule="evenodd" d="M22 18.5C22.5523 18.5 23 18.9477 23 19.5V23C23 23.5523 22.5523 24 22 24C21.4477 24 21 23.5523 21 23V19.5C21 18.9477 21.4477 18.5 22 18.5Z" fill="#65451F"/>
<path fill-rule="evenodd" clip-rule="evenodd" d="M22 0C22.5523 0 23 0.447715 23 1V14.5C23 15.0523 22.5523 15.5 22 15.5C21.4477 15.5 21 15.0523 21 14.5V1C21 0.447715 21.4477 0 22 0Z" fill="#65451F"/>
<path fill-rule="evenodd" clip-rule="evenodd" d="M22 15.5C21.1716 15.5 20.5 16.1716 20.5 17C20.5 17.8284 21.1716 18.5 22 18.5C22.8284 18.5 23.5 17.8284 23.5 17C23.5 16.1716 22.8284 15.5 22 15.5ZM18.5 17C18.5 15.067 20.067 13.5 22 13.5C23.933 13.5 25.5 15.067 25.5 17C25.5 18.933 23.933 20.5 22 20.5C20.067 20.5 18.5 18.933 18.5 17Z" fill="#65451F"/>
<path fill-rule="evenodd" clip-rule="evenodd" d="M4 14.5C4.55228 14.5 5 14.9477 5 15.5V23C5 23.5523 4.55228 24 4 24C3.44772 24 3 23.5523 3 23V15.5C3 14.9477 3.44772 14.5 4 14.5Z" fill="#65451F"/>
<path fill-rule="evenodd" clip-rule="evenodd" d="M4 0C4.55228 0 5 0.447715 5 1V10.5C5 11.0523 4.55228 11.5 4 11.5C3.44772 11.5 3 11.0523 3 10.5V1C3 0.447715 3.44772 0 4 0Z" fill="#65451F"/>
<path fill-rule="evenodd" clip-rule="evenodd" d="M4 11.5C3.17157 11.5 2.5 12.1716 2.5 13C2.5 13.8284 3.17157 14.5 4 14.5C4.82843 14.5 5.5 13.8284 5.5 13C5.5 12.1716 4.82843 11.5 4 11.5ZM0.5 13C0.5 11.067 2.067 9.5 4 9.5C5.933 9.5 7.5 11.067 7.5 13C7.5 14.933 5.933 16.5 4 16.5C2.067 16.5 0.5 14.933 0.5 13Z" fill="#65451F"/>
</svg>
