<svg width="50" height="50" viewBox="0 0 50 50" fill="none" xmlns="http://www.w3.org/2000/svg">
<path d="M25 8.66663V10.7083M37.5 33.1666H41.6667M29.1667 33.1666H25V41.3333M25 18.875V25M25 25H25.0208M25 25H33.3542M33.3333 41.3333H41.6667M8.33333 25H16.6667M41.6667 25H41.6875M10.4167 16.8333H14.5833C15.1359 16.8333 15.6658 16.6182 16.0565 16.2353C16.4472 15.8524 16.6667 15.3331 16.6667 14.7916V10.7083C16.6667 10.1668 16.4472 9.6475 16.0565 9.26462C15.6658 8.88173 15.1359 8.66663 14.5833 8.66663H10.4167C9.86413 8.66663 9.33422 8.88173 8.94352 9.26462C8.55282 9.6475 8.33333 10.1668 8.33333 10.7083V14.7916C8.33333 15.3331 8.55282 15.8524 8.94352 16.2353C9.33422 16.6182 9.86413 16.8333 10.4167 16.8333ZM35.4167 16.8333H39.5833C40.1359 16.8333 40.6658 16.6182 41.0565 16.2353C41.4472 15.8524 41.6667 15.3331 41.6667 14.7916V10.7083C41.6667 10.1668 41.4472 9.6475 41.0565 9.26462C40.6658 8.88173 40.1359 8.66663 39.5833 8.66663H35.4167C34.8641 8.66663 34.3342 8.88173 33.9435 9.26462C33.5528 9.6475 33.3333 10.1668 33.3333 10.7083V14.7916C33.3333 15.3331 33.5528 15.8524 33.9435 16.2353C34.3342 16.6182 34.8641 16.8333 35.4167 16.8333ZM10.4167 41.3333H14.5833C15.1359 41.3333 15.6658 41.1182 16.0565 40.7353C16.4472 40.3524 16.6667 39.8331 16.6667 39.2916V35.2083C16.6667 34.6668 16.4472 34.1475 16.0565 33.7646C15.6658 33.3817 15.1359 33.1666 14.5833 33.1666H10.4167C9.86413 33.1666 9.33422 33.3817 8.94352 33.7646C8.55282 34.1475 8.33333 34.6668 8.33333 35.2083V39.2916C8.33333 39.8331 8.55282 40.3524 8.94352 40.7353C9.33422 41.1182 9.86413 41.3333 10.4167 41.3333Z" stroke="#F9F9F9" stroke-width="3" stroke-linecap="round" stroke-linejoin="round"/>
</svg>
