<svg width="189" height="189" viewBox="0 0 189 189" fill="none" xmlns="http://www.w3.org/2000/svg">
<path fill-rule="evenodd" clip-rule="evenodd" d="M30.0004 106.992C30.0027 104.507 32.0286 102.482 34.517 102.482H144.581C147.077 102.482 149.077 104.508 149.06 106.956C148.918 127.12 147.714 142.847 140.138 153.714C132.887 164.114 118.848 171.178 89.6747 171.178C59.0731 171.178 44.9617 163.883 37.9568 153.465C34.3465 148.095 32.3106 141.47 31.213 133.574C30.1119 125.654 29.9916 116.773 30.0004 106.992ZM34.517 93.4822C27.0644 93.4822 21.0072 99.5283 21.0005 106.984C20.9917 116.727 21.1003 126.193 22.2987 134.813C23.5004 143.457 25.8343 151.565 30.4879 158.486C40.011 172.65 58.0043 180.178 89.6747 180.178C120.014 180.178 137.777 172.836 147.52 158.861C147.711 158.588 147.898 158.313 148.081 158.036C153.053 160.106 157.739 160.849 162.058 160.375C167.267 159.804 171.593 157.498 174.923 154.251C181.433 147.904 184.151 138.012 183.22 129.635C182.593 123.994 180.712 119.64 177.678 116.63C174.628 113.604 170.864 112.384 167.347 112.173C163.949 111.968 160.647 112.684 157.968 113.71C158.017 111.498 158.044 109.266 158.06 107.02C158.113 99.5279 152.025 93.4822 144.581 93.4822H34.517ZM157.492 124.501C156.827 133.735 155.396 142.404 152.281 150.025C155.771 151.367 158.691 151.691 161.077 151.429C164.106 151.096 166.612 149.785 168.64 147.807C172.847 143.706 174.952 136.72 174.275 130.629C173.807 126.418 172.529 124.199 171.339 123.019C170.166 121.855 168.642 121.267 166.806 121.156C164.917 121.043 162.865 121.458 161.09 122.152C160.218 122.493 159.485 122.874 158.937 123.226C158.422 123.557 158.204 123.776 158.168 123.812C158.163 123.817 158.161 123.819 158.164 123.816C157.96 124.073 157.735 124.301 157.492 124.501Z" fill="white"/>
<path d="M48.7303 18C32.8659 24.4954 30.9045 34.765 36.5676 39.823C42.0221 44.6945 57.2163 47.9557 56.6628 59.8505C56.1338 71.2175 41.8558 75.5566 38.1541 77" stroke="white" stroke-width="8" stroke-linecap="round" stroke-linejoin="round"/>
<path d="M91.777 28.0833C80.8686 27.0068 73.9812 36.5842 71.5967 44.233C67.2334 58.2295 69.861 81.2248 84.1413 84.6075C92.8679 86.6746 104.521 80.5513 101.049 66.8428C98.8674 58.2296 85.7775 58.2296 84.6865 68.9961" stroke="white" stroke-width="8" stroke-linecap="round" stroke-linejoin="round"/>
<path d="M108.906 16C108.378 29.7896 108.396 57.9987 113.136 60.5923C120.01 64.3531 122.605 46.7094 124.769 42.8628C126.884 39.102 125.826 64.8904 131.114 74.0237C134.547 79.954 143.804 80.4708 144.861 67.0394C145.919 53.608 138.516 25.1334 141.689 19.7608C144.227 15.4627 148.739 17.9699 150.677 19.7608" stroke="white" stroke-width="8" stroke-linecap="round" stroke-linejoin="round"/>
<path d="M89.1299 137.901C93.1989 137.901 96.4975 134.603 96.4975 130.534C96.4975 126.465 93.1989 123.166 89.1299 123.166C85.0608 123.166 81.7622 126.465 81.7622 130.534C81.7622 134.603 85.0608 137.901 89.1299 137.901Z" stroke="white" stroke-width="7" stroke-linecap="round" stroke-linejoin="round"/>
<path d="M98.2947 150.322L96.7968 152.306C94.9823 154.658 92.943 157.132 90.6757 159.739L88.6775 162C85.8549 158.867 83.1467 155.636 80.5582 152.306L79.0603 150.322C72.8062 141.861 69.6775 135.146 69.6775 130.182C69.6775 119.588 78.1832 111 88.6775 111C99.1718 111 107.677 119.588 107.677 130.182C107.677 133.497 106.282 137.593 103.492 142.468" stroke="white" stroke-width="7" stroke-linecap="round" stroke-linejoin="round"/>
</svg>
